:SAMPLES-PER-SECOND 30
:FULLY-SPECIFIED
:DEGREES
285
root  30.4991 38.2526 -2.17001 -50.0209 83.0339 -47.4894
RightUpLeg  -1.43895 -10.4603 3.16114
RightLeg  29.9273 -4.34577 -2.95018
RightFoot  -21.329 -0.187066 -0.51604
RightToes  0.00048216 0.542163 -0.142577
Spine  20.1427 -2.02658 13.5878
Spine1  13.4694 0.298424 -0.73062
HEad  1.82998 1.23111 -2.03001
LeftShoulder1  10.3478 -15.4865 -47.5599
LeftArm  -14.0083 -2.94451 -22.6221
LeftForeArm  32.5847 -31.1928 -5.00649
LeftHand  -0.25398 0.0180481 5.50724
RightShoulder  5.1304 10.5171 30.6352
RightArm  -11.9571 35.8678 22.543
RightForeArm  -0.349986 14.4738 6.69332
RightHand  -1.53706 4.1644 -18.8589
LeftUpLeg  -23.0003 5.6075 6.84339
LeftLeg  -1.03909 11.889 -4.27204
LeftFoot  3.45949 0.664478 -5.31285
LeftToes  1.06244e-005 4.65855e-005 -8.18506e-006
286
root  31.7907 37.9064 -2.27488 -51.0285 82.9881 -48.4455
RightUpLeg  -0.573104 -9.52301 2.77287
RightLeg  32.9783 -4.92453 -3.68594
RightFoot  -22.9873 0.0259242 1.7237
RightToes  0.00048216 0.542163 -0.142577
Spine  20.7613 -2.00878 11.9177
Spine1  13.6822 -0.119384 0.154095
HEad  1.74149 1.64331 -1.68513
LeftShoulder1  10.6083 -15.7608 -48.07
LeftArm  -15.2576 -2.53714 -21.8977
LeftForeArm  32.9336 -32.3837 -5.26975
LeftHand  -0.25398 0.0180481 5.50724
RightShoulder  5.143 10.5256 30.7033
RightArm  -10.1327 38.2178 22.5031
RightForeArm  -3.16695 17.1852 6.15566
RightHand  -1.56751 4.13215 -19.2729
LeftUpLeg  -24.3658 6.71974 5.64497
LeftLeg  3.36716 10.0148 -3.23651
LeftFoot  7.37533 0.435635 -2.9514
LeftToes  1.06244e-005 4.65855e-005 -8.18506e-006
287
root  32.996 37.5647 -2.40668 -45.3904 83.0566 -42.8286
RightUpLeg  -2.06061 -8.50021 1.46691
RightLeg  39.5198 -4.41433 -4.1676
RightFoot  -22.1133 0.436775 6.46041
RightToes  0.00048216 0.542163 -0.142577
Spine  22.3049 -1.52011 9.85768
Spine1  13.1957 -0.111345 0.940567
HEad  1.05734 1.58376 -1.00528
LeftShoulder1  10.9457 -16.1225 -48.6903
LeftArm  -15.6994 -3.37779 -21.0665
LeftForeArm  33.1267 -32.6513 -5.32415
LeftHand  -0.25398 0.0180481 5.50724
RightShoulder  5.22327 10.5541 31.2049
RightArm  -8.90579 39.6913 22.0787
RightForeArm  -6.05158 20.1284 5.54497
RightHand  -1.80484 5.01056 -20.2994
LeftUpLeg  -26.7323 11.2693 2.31563
LeftLeg  9.38903 4.16199 -1.60583
LeftFoot  12.801 0.109007 -0.872479
LeftToes  1.06244e-005 4.65855e-005 -8.18506e-006
288
root  34.0006 37.3545 -2.57605 -33.501 83.0933 -31.105
RightUpLeg  -6.70287 -8.32876 -0.63364
RightLeg  49.4085 -3.64791 -4.94366
RightFoot  -15.5782 0.244191 8.73773
RightToes  0.00048216 0.542163 -0.142577
Spine  25.057 -0.983187 7.86658
Spine1  12.4396 0.286294 0.894582
HEad  -0.376731 1.34215 -0.293372
LeftShoulder1  11.2322 -16.5436 -48.9168
LeftArm  -15.5871 -5.62821 -20.5008
LeftForeArm  33.0945 -32.0268 -5.17617
LeftHand  -0.25398 0.0180481 5.50724
RightShoulder  5.32774 10.6924 31.5819
RightArm  -9.62877 40.9803 21.8267
RightForeArm  -6.55921 22.1544 5.27136
RightHand  -2.13128 6.22143 -21.4662
LeftUpLeg  -29.1702 16.2414 -1.79901
LeftLeg  14.4853 -1.62949 -0.63664
LeftFoot  14.7162 -0.426981 1.48852
LeftToes  1.06244e-005 4.65855e-005 -8.18506e-006
289
root  34.7614 37.2567 -2.7927 -19.5937 83.2185 -17.6236
RightUpLeg  -13.4255 -9.42748 -2.94584
RightLeg  59.5347 -3.23658 -6.44179
RightFoot  -5.37203 -0.338563 6.15056
RightToes  0.00048216 0.542163 -0.142577
Spine  28.6023 -0.869977 6.2814
Spine1  12.0426 0.678853 -0.30177
HEad  -2.64166 0.992611 0.0566731
LeftShoulder1  11.3772 -17.0659 -48.2827
LeftArm  -15.669 -9.08688 -20.7176
LeftForeArm  33.2228 -30.8746 -4.89762
LeftHand  -0.25398 0.0180481 5.50724
RightShoulder  5.41541 10.9912 31.4116
RightArm  -11.4558 42.5291 21.8749
RightForeArm  -5.61109 22.9174 5.2336
RightHand  -2.31 6.84817 -22.0656
LeftUpLeg  -30.8454 18.5142 -4.79477
LeftLeg  18.1707 -3.27443 -0.805648
LeftFoot  12.9509 -1.04137 4.48119
LeftToes  1.06244e-005 4.65855e-005 -8.18506e-006
290
root  35.36 37.2299 -3.04807 -8.45602 83.4355 -7.40193
RightUpLeg  -20.2711 -11.4533 -4.52268
RightLeg  66.3272 -2.76265 -7.54187
RightFoot  1.5101 -0.333588 2.89916
RightToes  0.00048216 0.542163 -0.142577
Spine  32.1238 -1.18192 5.64711
Spine1  11.7832 0.87684 -1.93467
HEad  -5.52541 0.307275 0.0274523
LeftShoulder1  11.409 -17.683 -46.98
LeftArm  -16.1609 -13.5216 -21.6405
LeftForeArm  33.4537 -29.3772 -4.54245
LeftHand  -0.25398 0.0180481 5.50724
RightShoulder  5.48081 11.3815 30.8639
RightArm  -13.0463 44.4596 21.5503
RightForeArm  -5.28 22.4386 5.20448
RightHand  -2.204 6.55454 -21.574
LeftUpLeg  -31.9873 19.8906 -7.27824
LeftLeg  19.9496 -4.01093 -1.28384
LeftFoot  11.1413 -1.39277 6.63927
LeftToes  1.06244e-005 4.65855e-005 -8.18506e-006
291
root  35.8908 37.3454 -3.29867 -3.4046 83.5165 -3.86166
RightUpLeg  -26.4517 -13.5232 -4.4843
RightLeg  68.3963 -2.35188 -7.3265
RightFoot  2.45608 -0.258065 2.27239
RightToes  0.00048216 0.542163 -0.142577
Spine  35.4063 -1.6285 6.21813
Spine1  11.2866 1.09382 -3.17429
HEad  -8.72087 -0.8221 -0.100299
LeftShoulder1  11.4175 -18.357 -45.5147
LeftArm  -16.8538 -18.7735 -22.8191
LeftForeArm  33.3093 -27.5467 -4.14448
LeftHand  -0.25398 0.0180481 5.50724
RightShoulder  5.57642 11.8277 30.4068
RightArm  -14.5782 46.7488 20.0997
RightForeArm  -5.62712 20.6943 5.34985
RightHand  -1.89687 5.66798 -20.0935
LeftUpLeg  -32.9323 20.803 -8.96301
LeftLeg  19.8759 -5.07472 -1.70423
LeftFoot  10.9632 -1.49334 7.22255
LeftToes  1.06244e-005 4.65855e-005 -8.18506e-006
292
root  36.3572 37.5522 -3.47917 -1.53903 83.3018 -3.80753
RightUpLeg  -31.7264 -14.7303 -3.08849
RightLeg  65.771 -2.39497 -6.50221
RightFoot  0.623687 -0.371347 3.5886
RightToes  0.00048216 0.542163 -0.142577
Spine  38.6679 -1.85265 6.95863
Spine1  10.874 1.55447 -4.14889
HEad  -12.1222 -2.17206 -0.013795
LeftShoulder1  11.3944 -19.106 -43.836
LeftArm  -17.9255 -24.6115 -24.1561
LeftForeArm  32.6996 -25.4857 -3.73103
LeftHand  -0.25398 0.0180481 5.50724
RightShoulder  5.72971 12.3769 30.1072
RightArm  -17.6879 49.3368 17.4465
RightForeArm  -4.76309 17.7655 5.9164
RightHand  -1.54322 4.64097 -18.0713
LeftUpLeg  -33.905 21.3281 -9.97954
LeftLeg  19.0923 -5.7233 -1.87689
LeftFoot  11.0601 -1.47935 7.11824
LeftToes  1.06244e-005 4.65855e-005 -8.18506e-006
293
root  36.7636 37.7347 -3.5946 -0.979477 82.9874 -5.09523
RightUpLeg  -35.7199 -15.2282 -0.915562
RightLeg  59.3917 -3.85642 -7.41395
RightFoot  -1.06473 -0.411868 4.47631
RightToes  0.00048216 0.542163 -0.142577
Spine  41.8178 -1.999 7.40934
Spine1  10.9629 2.14933 -5.15286
HEad  -15.656 -3.34778 0.385257
LeftShoulder1  11.2424 -19.9279 -41.5825
LeftArm  -19.8008 -30.6538 -25.5749
LeftForeArm  31.7521 -23.3019 -3.36471
LeftHand  -0.25398 0.0180481 5.50724
RightShoulder  5.89547 13.0634 29.6008
RightArm  -23.0349 51.9999 14.0856
RightForeArm  -1.91861 14.0737 6.61581
RightHand  -1.21713 3.77153 -15.6558
LeftUpLeg  -35.0533 21.85 -10.7991
LeftLeg  18.4883 -6.0146 -1.91542
LeftFoot  10.6195 -1.48157 7.29043
LeftToes  1.06244e-005 4.65855e-005 -8.18506e-006
294
root  37.1587 37.874 -3.69097 -3.32777 82.8147 -9.45242
RightUpLeg  -38.341 -15.9124 1.92753
RightLeg  50.1123 -7.2687 -9.52168
RightFoot  -2.84238 -0.368416 4.72403
RightToes  0.00048216 0.542163 -0.142577
Spine  44.6079 -2.34237 8.08363
Spine1  11.0079 2.57301 -6.06056
HEad  -18.983 -4.13671 0.963489
LeftShoulder1  10.975 -20.7254 -39.0307
LeftArm  -22.4802 -36.4336 -26.327
LeftForeArm  30.4295 -21.0103 -3.18572
LeftHand  -0.25398 0.0180481 5.50724
RightShoulder  6.05576 13.8796 28.8284
RightArm  -28.6935 54.3421 10.5863
RightForeArm  0.971351 10.3521 6.87651
RightHand  -0.916439 3.13894 -12.7139
LeftUpLeg  -36.4896 22.22 -11.3368
LeftLeg  18.0469 -6.43021 -2.01388
LeftFoot  10.3536 -1.54616 7.72425
LeftToes  1.06244e-005 4.65855e-005 -8.18506e-006
295
root  37.5685 37.936 -3.72974 -5.20464 83.121 -13.699
RightUpLeg  -40.137 -17.5348 5.09961
RightLeg  38.482 -10.019 -8.81171
RightFoot  -4.16896 -0.386857 5.60526
RightToes  0.00048216 0.542163 -0.142577
Spine  47.0849 -2.80983 8.5723
Spine1  10.3265 2.64372 -6.72434
HEad  -21.8272 -4.69603 1.60634
LeftShoulder1  10.7419 -21.4891 -36.7863
LeftArm  -25.3376 -41.5927 -25.7401
LeftForeArm  28.8008 -18.8205 -3.08944
LeftHand  -0.25398 0.0180481 5.50724
RightShoulder  6.24233 14.7144 28.2309
RightArm  -32.8409 56.1722 7.24605
RightForeArm  2.12284 7.18639 6.64215
RightHand  -0.628755 2.54339 -9.42884
LeftUpLeg  -38.62 21.9258 -11.973
LeftLeg  18.162 -6.98029 -2.22996
LeftFoot  10.2684 -1.61997 8.14421
LeftToes  1.06244e-005 4.65855e-005 -8.18506e-006
